<svg xmlns="http://www.w3.org/2000/svg" xmlns:xlink="http://www.w3.org/1999/xlink" width="28" height="28" id="design"><defs><linearGradient id="b" x1="992.183" x2="1019.298" y1="516.081" y2="545.959" gradientTransform="translate(-888.245 -462.595) scale(.89708)" gradientUnits="userSpaceOnUse" xlink:href="#a"></linearGradient><linearGradient id="a"><stop offset="0" stop-color="#ff1679"></stop><stop offset="1" stop-color="#ff770b"></stop></linearGradient></defs><rect width="28" height="28" fill="url(#b)" rx="5.917" ry="5.917"></rect><path style="line-height:normal;text-indent:0;text-align:start;text-decoration-line:none;text-decoration-style:solid;text-decoration-color:#000;text-transform:none;block-progression:tb;isolation:auto;mix-blend-mode:normal" fill="#fff" d="M19.837 4.977a1.49 1.49 0 0 0-1.054.434l-.372.373a.5.5 0 0 0-.042.04l-.186.186a.5.5 0 0 0-.088.112l-.828.904a.5.5 0 0 0-.016.02l-2.713 2.712L10.09 5.31a.99.99 0 0 0-.703-.281.99.99 0 0 0-.703.281l-2.4 2.4a1.018 1.018 0 0 0 0 1.409l.002.002 4.492 4.398-2.762 2.762a.5.5 0 0 0-.354.328l-1.5 4.6a.5.5 0 0 0 .631.63l4.6-1.5a.5.5 0 0 0 .254-.19l2.88-2.882 4.354 4.45.002.001a1.018 1.018 0 0 0 1.408 0l2.4-2.4a1.016 1.016 0 0 0 0-1.406l-4.404-4.405 2.862-2.86a.5.5 0 0 0 .113-.177l.617-.566a.5.5 0 0 0 .002-.002.5.5 0 0 0 .11-.084l.185-.186a.5.5 0 0 0 .047-.046l.367-.368a1.5 1.5 0 0 0 0-2.107l-1.699-1.7a1.485 1.485 0 0 0-1.053-.433Zm-.002.973c.118 0 .236.056.348.168l1.7 1.699c.222.223.222.47 0 .693l-.378.38a.5.5 0 0 0-.006.005l-.023.022-.705.644-2.332-2.332.666-.728.385-.383c.111-.112.228-.168.345-.168zm-10.449.07 4.445 4.445-2.345 2.346-.733-.719 1.711-1.71-.99-.99-1.723 1.722-1.029-1.01.693-.693-.99-.989-.703.704-.728-.713L9.386 6.02Zm8.252 2.053.625.625L9.54 17.42l-.625-.625 8.723-8.722zm1.615 1.615.719.719-8.723 8.722-.718-.718 8.722-8.723zm-1.674 4.525 4.4 4.4-2.392 2.393-.63-.642 1.687-1.688-.99-.99-1.676 1.678-1.078-1.102.697-.697-.99-.99-.686.685-.687-.7 2.345-2.347zm-9.22 3.48 1.947 1.948-2.559.834-.222-.222.834-2.56Z" color="#000" font-family="sans-serif" font-weight="400" overflow="visible"></path></svg>