<svg xmlns="http://www.w3.org/2000/svg" xmlns:xlink="http://www.w3.org/1999/xlink" width="48" height="48" id="website"><defs><linearGradient id="b" x1="906.952" x2="931.379" y1="515.915" y2="546.094" gradientTransform="translate(-1388.719 211.342) scale(1.53785)" gradientUnits="userSpaceOnUse" xlink:href="#a"></linearGradient><linearGradient id="a"><stop offset="0" stop-color="#ffd800"></stop><stop offset="1" stop-color="#ff6100"></stop></linearGradient></defs><g transform="translate(0 -1004.362)"><rect width="48" height="48" y="1004.362" fill="url(#b)" rx="10.144" ry="10.144"></rect><path style="line-height:normal;-inkscape-font-specification:Sans;text-indent:0;text-align:start;text-decoration-line:none;text-transform:none;block-progression:tb;marker:none" fill="#fff" d="M36.407 1013.3a.5.5 0 0 0-.438.5v3.063a.5.5 0 0 0 .5.5h2.532a.5.5 0 0 0 .375-.844l-2.5-3.031a.5.5 0 0 0-.407-.188.5.5 0 0 0-.062 0zm-12.063.062a.5.5 0 0 0-.343.5v7.5H9.5a.5.5 0 0 0-.157 0 .5.5 0 0 0-.343.5v17a.5.5 0 0 0 .5.5H18v3h-3v1h14v-1h-3v-3h8.5a.5.5 0 0 0 .5-.5v-9h-1v5.5H10v-13h14v6.469a.5.5 0 0 0 .5.5h2.093l3 2.906a.5.5 0 0 0 .844-.375v-2.531h8.063a.5.5 0 0 0 .5-.5V1018.425a.5.5 0 1 0-1 0v9.906H29.938a.5.5 0 0 0-.5.5v1.875l-2.25-2.219a.5.5 0 0 0-.344-.156h-.562a.5.5 0 0 0-.031 0H25v-13.969h9.625a.5.5 0 1 0 0-1H24.5a.5.5 0 0 0-.157 0zm12.625 1.844.97 1.156h-.97v-1.156zm-9.968 1.156v1h7v-1h-7zm0 3v1h9v-1h-9zm0 3v1h9v-1h-9zm0 3v1h9v-1h-9zm-17 11h24v2H10v-2zm9 3h6v3h-6v-3z" color="#000" font-family="Sans" font-weight="400" overflow="visible"></path></g></svg>